<?xml version="1.0" standalone="no"?><!DOCTYPE svg PUBLIC "-//W3C//DTD SVG 1.1//EN" "http://www.w3.org/Graphics/SVG/1.1/DTD/svg11.dtd"><svg t="1515490470725" class="icon" style="" viewBox="0 0 1024 1024" version="1.1" xmlns="http://www.w3.org/2000/svg" p-id="989" xmlns:xlink="http://www.w3.org/1999/xlink" width="200" height="200"><defs><style type="text/css"></style></defs><path d="M236.288 323.648c0 11.264 4.672 22.528 12.672 30.464 8 8 19.2 12.672 30.464 12.672 11.328 0 22.528-4.672 30.528-12.672 8-7.936 12.608-19.2 12.608-30.464 0-11.328-4.608-22.528-12.608-30.528-8-8-19.2-12.608-30.528-12.608-11.264 0-22.528 4.608-30.464 12.608C240.96 301.12 236.288 312.32 236.288 323.648L236.288 323.648zM236.288 323.648M572.16 546.56c0 8.96 3.648 17.6 9.792 24 6.4 6.208 15.104 9.728 24 9.728S623.488 576.704 629.76 570.496c6.4-6.336 9.856-15.04 9.856-24 0-8.704-3.52-17.536-9.856-23.808C623.488 516.48 614.848 512.832 606.016 512.832S588.352 516.48 582.016 522.752C575.872 528.96 572.16 537.792 572.16 546.56L572.16 546.56zM572.16 546.56M456.256 323.648c0 11.264 4.672 22.528 12.608 30.464 8 8 19.2 12.672 30.528 12.672 11.264 0 22.464-4.672 30.528-12.672 7.936-7.936 12.608-19.2 12.608-30.464 0-11.328-4.672-22.528-12.608-30.528C521.92 285.12 510.656 280.512 499.456 280.512c-11.328 0-22.528 4.608-30.528 12.608C460.992 301.12 456.256 312.32 456.256 323.648L456.256 323.648zM456.256 323.648M384.256 686.016c-38.784 0-69.952-7.872-108.736-15.488l-108.608 54.4 31.104-93.376C120.32 577.28 73.856 507.264 73.856 421.952c0-147.648 139.776-263.936 310.464-263.936 152.64 0 286.336 92.864 313.216 217.92-9.856-1.088-19.904-1.792-29.888-1.792-147.456 0-263.936 110.08-263.936 245.696 0 22.528 3.52 44.224 9.6 64.896C403.712 685.632 394.048 686.016 384.256 686.016L384.256 686.016zM842.24 794.88l23.232 77.632-84.992-46.72c-31.104 7.744-62.272 15.488-93.248 15.488-147.712 0-264-100.864-264-225.28 0-124.032 116.352-225.216 264-225.216 139.52 0 263.616 101.184 263.616 225.216C950.848 686.016 904.64 748.032 842.24 794.88L842.24 794.88zM842.24 794.88M741.376 546.56c0 8.96 3.648 17.6 9.856 24 6.272 6.208 14.976 9.728 23.872 9.728s17.6-3.584 23.872-9.728c6.272-6.336 9.856-15.04 9.856-24 0-8.704-3.648-17.536-9.856-23.808-6.272-6.272-14.976-9.92-23.872-9.92s-17.6 3.648-23.872 9.92C745.024 528.96 741.376 537.792 741.376 546.56L741.376 546.56zM741.376 546.56" p-id="990"></path></svg>